<svg xmlns="http://www.w3.org/2000/svg" width="400" height="128">
  <defs>
    <linearGradient id="accent_dark_2" x1="0%" x2="100%">
      <stop offset="0%" stop-color="#1f6feb">
        <animate attributeName="stop-color" values="#1f6feb;#a371f7;#1f6feb" dur="6s" repeatCount="indefinite"/>
      </stop>
      <stop offset="100%" stop-color="#a371f7">
        <animate attributeName="stop-color" values="#a371f7;#1f6feb;#a371f7" dur="6s" repeatCount="indefinite"/>
      </stop>
    </linearGradient>
  </defs>
  <style>text { font-family: -apple-system, BlinkMacSystemFont, "Segoe UI", Helvetica, Arial, sans-serif; }</style>
  <rect width="400" height="128" rx="6" fill="#0d1117" stroke="#30363d" stroke-width="1"/>
  <rect width="400" height="3" rx="1.5" fill="url(#accent_dark_2)"/>
  <svg x="20" y="14" width="16" height="16" viewBox="0 0 16 16"><path fill="#8b949e" d="M2 2.5A2.5 2.5 0 0 1 4.5 0h8.75a.75.75 0 0 1 .75.75v12.5a.75.75 0 0 1-.75.75h-2.5a.75.75 0 0 1 0-1.5h1.75v-2h-8a1 1 0 0 0-.714 1.7.75.75 0 1 1-1.072 1.05A2.495 2.495 0 0 1 2 11.5Zm10.5-1h-8a1 1 0 0 0-1 1v6.708A2.486 2.486 0 0 1 4.5 9h8ZM5 12.25a.25.25 0 0 1 .25-.25h3.5a.25.25 0 0 1 .25.25v3.25a.25.25 0 0 1-.4.2l-1.45-1.087a.249.249 0 0 0-.3 0L5.4 15.7a.25.25 0 0 1-.4-.2Z"/></svg>
  <text fill="#58a6ff" font-size="14" font-weight="600" x="44" y="28" opacity="0">arrakis-command-nexus<animate attributeName="opacity" from="0" to="1" dur="0.6s" begin="0.1s" fill="freeze"/></text>
    <text fill="#8b949e" font-size="12" x="20" y="50" opacity="0">Self-hosted Dune Awakening dedicated server with<animate attributeName="opacity" from="0" to="1" dur="0.6s" begin="0.3s" fill="freeze"/></text>
    <text fill="#8b949e" font-size="12" x="20" y="66" opacity="0">Docker Compose and the Arrakis Command Nexus...<animate attributeName="opacity" from="0" to="1" dur="0.6s" begin="0.4s" fill="freeze"/></text>
  <circle cx="26" cy="104" r="6" fill="#3178c6">
    <animate attributeName="opacity" values="1;0.5;1" dur="2.4s" repeatCount="indefinite"/>
  </circle>
  <text fill="#8b949e" font-size="12" x="38" y="108">TypeScript</text>
  <svg x="150" y="96" width="16" height="16" viewBox="0 0 16 16"><path fill="#8b949e" d="M8 .25a.75.75 0 0 1 .673.418l1.882 3.815 4.21.612a.75.75 0 0 1 .416 1.279l-3.046 2.97.719 4.192a.751.751 0 0 1-1.088.791L8 12.347l-3.766 1.98a.75.75 0 0 1-1.088-.79l.72-4.194L.818 6.374a.75.75 0 0 1 .416-1.28l4.21-.611L7.327.668A.75.75 0 0 1 8 .25Z"/></svg>
  <text fill="#8b949e" font-size="12" x="170" y="108">5</text>
  <svg x="200" y="96" width="16" height="16" viewBox="0 0 16 16"><path fill="#8b949e" d="M5 5.372v.878c0 .414.336.75.75.75h4.5a.75.75 0 0 0 .75-.75v-.878a2.25 2.25 0 1 1 1.5 0v.878a2.25 2.25 0 0 1-2.25 2.25h-1.5v2.128a2.251 2.251 0 1 1-1.5 0V8.5h-1.5A2.25 2.25 0 0 1 3.5 6.25v-.878a2.25 2.25 0 1 1 1.5 0ZM5 3.25a.75.75 0 1 0-1.5 0 .75.75 0 0 0 1.5 0Zm6.75.75a.75.75 0 1 0 0-1.5.75.75 0 0 0 0 1.5Zm-3 8.75a.75.75 0 1 0-1.5 0 .75.75 0 0 0 1.5 0Z"/></svg>
  <text fill="#8b949e" font-size="12" x="220" y="108">0</text>
  <svg x="250" y="96" width="14" height="14" viewBox="0 0 16 16"><path fill="#8b949e" d="M8 0a8 8 0 1 1 0 16A8 8 0 0 1 8 0ZM1.5 8a6.5 6.5 0 1 0 13 0 6.5 6.5 0 0 0-13 0Zm7-3.25v2.992l2.028.812a.75.75 0 0 1-.557 1.392l-2.5-1A.751.751 0 0 1 7 8.25v-3.5a.75.75 0 0 1 1.5 0Z"/></svg>
  <text fill="#8b949e" font-size="11" x="268" y="107">10h ago</text>
</svg>