<svg xmlns="http://www.w3.org/2000/svg" width="340" height="200" viewBox="0 0 340 200"><style>* {
          font-family: 'Segoe UI', Ubuntu, "Helvetica Neue", Sans-Serif
        }</style><rect x="1" y="1" rx="5" ry="5" height="99%" width="99.41176470588235%" stroke="#000000" stroke-width="1" fill="#0c1014" stroke-opacity="1"></rect><text x="30" y="40" style="font-size: 22px; fill: #2aa889;">Top Languages by Commit</text><g transform="translate(0,40)"><g transform="translate(40,0)"><rect y="18" width="14" height="14" fill="#3178c6" stroke="#0c1014" style="stroke-width: 1px;"></rect><rect y="43.2" width="14" height="14" fill="#e34c26" stroke="#0c1014" style="stroke-width: 1px;"></rect><rect y="68.4" width="14" height="14" fill="#f1e05a" stroke="#0c1014" style="stroke-width: 1px;"></rect><rect y="93.60000000000002" width="14" height="14" fill="#663399" stroke="#0c1014" style="stroke-width: 1px;"></rect><rect y="118.80000000000001" width="14" height="14" fill="#3572A5" stroke="#0c1014" style="stroke-width: 1px;"></rect><text x="16.8" y="30" style="fill: #99d1ce; font-size: 14px;">TypeScript</text><text x="16.8" y="55.2" style="fill: #99d1ce; font-size: 14px;">HTML</text><text x="16.8" y="80.4" style="fill: #99d1ce; font-size: 14px;">JavaScript</text><text x="16.8" y="105.60000000000002" style="fill: #99d1ce; font-size: 14px;">CSS</text><text x="16.8" y="130.8" style="fill: #99d1ce; font-size: 14px;">Python</text></g><g transform="translate( 230, 80 )"><g class="arc"><path d="M3.67394039744206e-15,-60A60,60,0,0,1,11.396011797128443,58.90781709688205L6.647673548324925,34.36289330651453A35,35,0,0,0,2.1431318985078682e-15,-35Z" style="fill: #3178c6; stroke-width: 2px;" stroke="#0c1014"></path></g><g class="arc"><path d="M11.396011797128443,58.90781709688205A60,60,0,0,1,-59.579377334489216,-7.092093938644125L-34.75463677845204,-4.137054797542406A35,35,0,0,0,6.647673548324925,34.36289330651453Z" style="fill: #e34c26; stroke-width: 2px;" stroke="#0c1014"></path></g><g class="arc"><path d="M-59.579377334489216,-7.092093938644125A60,60,0,0,1,-12.74373205331973,-58.63102671242583L-7.433843697769842,-34.20143224891507A35,35,0,0,0,-34.75463677845204,-4.137054797542406Z" style="fill: #f1e05a; stroke-width: 2px;" stroke="#0c1014"></path></g><g class="arc"><path d="M-12.74373205331973,-58.63102671242583A60,60,0,0,1,-3.6667271249376276,-59.88785446308164L-2.138924156213616,-34.934581770130954A35,35,0,0,0,-7.433843697769842,-34.20143224891507Z" style="fill: #663399; stroke-width: 2px;" stroke="#0c1014"></path></g><g class="arc"><path d="M-3.6667271249376276,-59.88785446308164A60,60,0,0,1,-1.1021821192326178e-14,-60L-6.429395695523604e-15,-35A35,35,0,0,0,-2.138924156213616,-34.934581770130954Z" style="fill: #3572A5; stroke-width: 2px;" stroke="#0c1014"></path></g></g></g></svg>